<?xml version="1.0" encoding="iso-8859-1"?>
<!-- Generator: Adobe Illustrator 19.0.0, SVG Export Plug-In . SVG Version: 6.00 Build 0)  -->
<svg version="1.1" id="Layer_1" xmlns="http://www.w3.org/2000/svg" xmlns:xlink="http://www.w3.org/1999/xlink" x="0px" y="0px"
	 viewBox="0 0 512 512" style="enable-background:new 0 0 512 512;" xml:space="preserve">
<g>
	<g>
		<g>
			<path d="M512,245.736C506.535,112.494,399.135,5.589,265.893,0.124v0.448h-21.319V0.124C108.668,5.734,0,118.222,0,255.71
				c0,141.059,115.06,256.167,256.12,256.167c137.486,0,250.27-108.915,255.88-244.822h-0.942v-21.319H512z M244.574,21.457v85.444
				c-71.951,5.24-131.729,64.22-136.968,138.836H22.162C27.595,123.154,124.657,26.891,244.574,21.457z M244.574,489.962
				C124.657,484.528,27.595,386.973,22.162,267.055h85.444c5.24,71.951,65.018,132.223,136.968,137.463V489.962z M244.574,352.33
				v30.814c-61.291-5.148-110.446-54.797-115.594-116.088h30.319v-21.319h-30.319c5.147-63.956,54.302-112.314,115.594-117.461
				v32.186h21.319v-32.186c63.956,5.147,112.808,53.505,117.956,117.461h-32.681v21.319h32.681
				c-5.148,61.291-53.999,110.941-117.956,116.088V352.33H244.574z M265.893,489.962v-85.444
				c74.615-5.24,134.09-65.512,139.329-137.463h85.445C485.233,386.973,388.475,484.528,265.893,489.962z M405.222,245.736
				c-5.239-74.615-64.713-133.596-139.329-138.836V21.457c122.583,5.434,219.34,101.697,224.774,224.28H405.222z"/>
			<polygon points="512,245.736 512,245.736 512,245.736 			"/>
		</g>
	</g>
</g>
<g>
	<g>
		<path d="M256.414,213.073c-23.51,0-42.637,19.127-42.637,42.637c0,23.51,19.127,42.637,42.637,42.637
			c23.51,0,42.637-19.128,42.637-42.637C299.051,232.2,279.924,213.073,256.414,213.073z M256.414,277.029
			c-11.758,0-21.319-9.561-21.319-21.319c0-11.758,9.561-21.319,21.319-21.319c11.758,0,21.319,9.561,21.319,21.319
			C277.733,267.467,268.171,277.029,256.414,277.029z"/>
	</g>
</g>
<g>
</g>
<g>
</g>
<g>
</g>
<g>
</g>
<g>
</g>
<g>
</g>
<g>
</g>
<g>
</g>
<g>
</g>
<g>
</g>
<g>
</g>
<g>
</g>
<g>
</g>
<g>
</g>
<g>
</g>
</svg>
